<?xml version="1.0" encoding="utf-8"?>
<!-- Generator: Adobe Illustrator 21.0.2, SVG Export Plug-In . SVG Version: 6.00 Build 0)  -->
<svg version="1.1" id="Ebene_1" xmlns="http://www.w3.org/2000/svg" xmlns:xlink="http://www.w3.org/1999/xlink" x="0px" y="0px"
	 width="265.4px" height="60.3px" viewBox="0 0 265.4 60.3" style="enable-background:new 0 0 265.4 60.3;" xml:space="preserve">
<g>
	<path style="fill:#DC6428;" d="M265.3,29.4V5.9h-8v6c0,3,0.5,7,0.5,7s-1.3-3.5-3-6.5l-3.7-6.6H243v23.5h8v-6.7
		c0-2.5-0.6-6.4-0.6-6.4s1.7,3.7,2.9,5.9l4,7.2h8V29.4z M237.9,5.9h-19.1v23.5h18.9v-5.8h-10.5v-3.3h8.8v-5.4h-8.8v-3.1h10
		L237.9,5.9z M204.8,13.4c0,2.4-1.1,3.1-4.6,3.2v-5.5h0.6C204,11.2,204.8,11.7,204.8,13.4 M213.6,29.4l-1.3-4.5
		c-0.9-3.1-1.6-4.5-3.2-5.5c2.3-1,4-2.4,4-6.7c0-6.5-5.8-6.9-12.1-6.9h-9.3v23.5h8.4v-8.1l2-0.2c0.6,0.7,1.2,1.7,1.7,4.3l0.7,3.9
		h9.1V29.4z M186.6,5.9h-19.1v23.5h18.9v-5.8h-10.5v-3.3h8.8v-5.4h-8.8v-3.1h10L186.6,5.9z M153.5,17.6c0,5-1.3,6-4.7,6h-0.7V11.7
		h0.6C152.1,11.7,153.5,12.3,153.5,17.6 M161.9,17.6c0-11-6.1-11.7-14.2-11.7h-8.1v23.5h8.5C156.2,29.4,161.9,28.5,161.9,17.6
		 M133,29.4V5.9h-8v6c0,3,0.5,7,0.5,7s-1.3-3.5-3-6.5l-3.7-6.6h-8.1v23.5h8v-6.7c0-2.5-0.6-6.4-0.6-6.4s1.7,3.7,2.9,5.9l4,7.2h8
		V29.4z M96,18.7h-4.9l0.7-4.3c0.5-3.2,1.7-10.2,1.7-10.2s1.3,6.9,1.8,10.2L96,18.7z M106.4,29.4L99.1,0h-11l-7.3,29.4h8.7l0.8-4.9
		h6.6l0.8,4.9H106.4z M62.1,5.9H43v23.5h18.9v-5.8H51.4v-3.3h8.8v-5.4h-8.8v-3.1h10L62.1,5.9z M36.4,5.9H28v23.5h8.5L36.4,5.9
		L36.4,5.9z M13.9,14.7c0,7.8-1.3,8.7-4.7,8.7H8.4V6H9C12.4,6,13.9,6.8,13.9,14.7 M22.3,14.7C22.3,1.9,16.2,0,8.1,0H0v29.4h8.5
		C16.5,29.4,22.3,27.3,22.3,14.7"/>
	<path d="M81.9,43.7v8.2c0,2.6,1.3,3.4,3.2,3.4c2.1,0,3.8-1.4,3.8-1.4l0.4,1.2h2.5V43.7h-3V52c0,0-1.3,0.8-2.6,0.8
		c-1,0-1.3-0.3-1.3-1.1v-8H81.9z M98,50.3h3.5c0,2.3-0.6,3.1-1.8,3.1C98.5,53.4,98,52.8,98,50.3 M95,49.4c-0.1,4.9,2.5,5.9,4.6,5.9
		c2.3,0,4.8-1.1,4.8-5.9c0-5.3-2.9-5.9-5.3-5.9c-1.8,0-3.5,0.6-3.5,0.6v2.4c0,0,2-0.6,3.5-0.6c0.9,0,2.2,0.3,2.3,2.5H95V49.4z
		 M106.6,44v2.3c0,0,1.6-0.4,2.1-0.4c0.4,0,0.7,0.1,0.7,0.7v6.5h-2.3l-0.3,2h2.6v3.4l2.8-0.9l0.2-2.5h1.9v-2h-1.9v-6.5
		c0-2.7-1.6-3.1-3.1-3.1C107.8,43.5,106.6,44,106.6,44 M116.8,43.7v8.2c0,2.5,1.3,3.4,3.2,3.4c2,0,3.7-1.4,3.7-1.4v5.3h3V43.7h-3V52
		c0,0-1.5,0.8-2.6,0.8c-1,0-1.3-0.3-1.3-1.1v-8H116.8z M129.6,44v2.4c0,0,1.6-0.5,2.5-0.5c1.3,0,2.2,0.4,2.2,3.5
		c0,3.3-1.2,3.7-2.4,3.7c-0.8,0-2.3-0.5-2.3-0.5v2.3c0,0,1,0.5,2.4,0.5c2,0,5.3-0.6,5.3-6s-2.8-5.8-5-5.8
		C131,43.5,129.6,44,129.6,44 M143.6,46.3c0,0,0.9-0.6,1.9-0.6c0.8,0,1.3,0.3,1.3,1.5c0,1.5-0.7,1.9-2.4,1.9h-0.9L143.6,46.3
		L143.6,46.3z M140.5,43.7v7.9c0,3.1,1.9,3.7,4.1,3.7c2.1,0,4.1-0.7,4.1-0.7v-2.4c0,0-2,0.6-3.6,0.6c-1,0-1.6-0.1-1.6-1.2v-0.8h2
		c1.7,0,4.3-0.5,4.3-3.7c0-3.1-1.8-3.7-3.2-3.7c-2,0-3.1,1.2-3.1,1.2l-0.3-1h-2.7V43.7z M151.5,52.3v2.9c0,0,0.5,0.1,1.3,0.1
		c1.4,0,2.1-1.4,2.1-1.4l0.4,1.1h2.4V43.7h-3v8.4c0,0-0.8,0.4-1.5,0.4C152.6,52.6,151.5,52.3,151.5,52.3 M160.3,44v2.3
		c0,0,1.6-0.4,2.1-0.4c0.4,0,0.7,0.1,0.7,0.7v6.5h-2.3l-0.3,2h2.6v3.4l2.8-0.9l0.2-2.5h1.9v-2h-1.9v-6.5c0-2.7-1.6-3.1-3.1-3.1
		C161.6,43.5,160.3,44,160.3,44 M173,50.3h3.5c0,2.3-0.6,3.1-1.8,3.1C173.6,53.4,173,52.8,173,50.3 M170,49.4
		c-0.1,4.9,2.5,5.9,4.6,5.9c2.3,0,4.8-1.1,4.8-5.9c0-5.3-2.9-5.9-5.3-5.9c-1.9,0-3.5,0.6-3.5,0.6v2.4c0,0,2-0.6,3.5-0.6
		c0.9,0,2.2,0.3,2.3,2.5H170L170,49.4z M185.3,49.5c0-3.2,1.2-3.9,2.2-3.9c0.6,0,1.6,0.1,1.6,0.1v6.7c0,0-0.8,0.6-1.8,0.6
		C185.9,53.1,185.3,52.8,185.3,49.5 M182.3,49.5c0,5.4,2.6,5.8,4.2,5.8c1.6,0,2.7-1,2.7-1v4.9h3V44c0,0-2.5-0.5-4.6-0.5
		C185.5,43.5,182.3,44,182.3,49.5 M203.6,43.7v8.2c0,2.6,1.3,3.4,3.2,3.4c2.1,0,3.8-1.4,3.8-1.4l0.4,1.2h2.5V43.7h-3V52
		c0,0-1.3,0.8-2.6,0.8c-1,0-1.3-0.3-1.3-1.1v-8H203.6z M219.7,50.3h3.5c0,2.3-0.6,3.1-1.8,3.1C220.3,53.4,219.7,52.8,219.7,50.3
		 M216.7,49.4c-0.1,4.9,2.5,5.9,4.6,5.9c2.3,0,4.8-1.1,4.8-5.9c0-5.3-2.9-5.9-5.3-5.9c-1.8,0-3.5,0.6-3.5,0.6v2.4c0,0,2-0.6,3.5-0.6
		c0.9,0,2.2,0.3,2.3,2.5h-6.4L216.7,49.4z M228.3,44v2.3c0,0,1.6-0.4,2.1-0.4c0.4,0,0.7,0.1,0.7,0.7v6.5h-2.3l-0.3,2h2.6v3.4
		l2.8-0.9l0.2-2.5h1.9v-2h-1.9v-6.5c0-2.7-1.6-3.1-3.1-3.1C229.6,43.5,228.3,44,228.3,44 M238.6,55.1h3V43.7h-3V55.1z M238.3,58.5
		c0,1,0.8,1.8,1.8,1.8s1.8-0.8,1.8-1.8s-0.8-1.8-1.8-1.8C239.1,56.6,238.3,57.5,238.3,58.5 M247.7,50.3h3.5c0,2.3-0.6,3.1-1.8,3.1
		C248.3,53.4,247.8,52.8,247.7,50.3 M244.8,49.4c-0.1,4.9,2.5,5.9,4.6,5.9c2.3,0,4.8-1.1,4.8-5.9c0-5.3-2.9-5.9-5.3-5.9
		c-1.8,0-3.5,0.6-3.5,0.6v2.4c0,0,2-0.6,3.5-0.6c0.9,0,2.2,0.3,2.3,2.5h-6.4L244.8,49.4z M256.8,47.9c0,2.5,1.4,3.6,2.8,4.4l1.3,0.7
		c0.9,0.5,1.6,0.9,1.6,2c0,1.2-0.9,1.6-1.9,1.6c-1.4,0-3.1-0.6-3.1-0.6v2.5c0,0,1.2,0.6,3.3,0.6c2,0,4.7-0.9,4.7-4.2
		c0-2.1-1.2-3.2-2.4-3.9l-1.4-0.8c-1-0.6-1.8-1-1.8-2.3c0-1.5,1.1-1.8,2.3-1.8c1,0,3.1,0.6,3.1,0.6v-2.6c0,0-1.7-0.5-3.6-0.5
		C259.5,43.5,256.8,44.2,256.8,47.9"/>
</g>
</svg>
